<?xml version="1.0" standalone="no"?>
<!DOCTYPE svg PUBLIC "-//W3C//DTD SVG 20010904//EN"
 "http://www.w3.org/TR/2001/REC-SVG-20010904/DTD/svg10.dtd">
<svg version="1.0" xmlns="http://www.w3.org/2000/svg"
 width="16pt" height="16pt" viewBox="0 0 16 16"
 preserveAspectRatio="xMidYMid meet">
<g transform="translate(0,16) scale(0.1,-0.1)"
fill="#000000" stroke="none">
<path d="M130 130 c-8 -5 -27 -10 -41 -10 -15 0 -36 -8 -47 -17 -23 -21 -42
-100 -20 -87 7 4 27 7 44 5 48 -4 86 34 82 81 -2 31 -6 36 -18 28z m-39 -51
c-14 -5 -32 -15 -40 -22 -9 -6 -8 -2 3 11 11 12 29 22 40 21 19 0 19 -1 -3
-10z"/>
</g>
</svg>
