<svg xmlns="http://www.w3.org/2000/svg" viewBox="0 0 576 512">
  <path d="M546.2 9.7c-6.6-9.5-19.7-11.9-29.3-5.3-1.2 .8-119.6 76.7-260.1 54.1-131.7-20.7-236.6 55.1-256.5 70.6-16.6 12.8-19.8 36.4-7 53 12.8 16.6 36.4 19.8 53 7 1.4-1.1 136.6-105.5 312.1-79.4-66.4 58.2-163.5 153.2-270.5 267.8-91.4 96.6-122.5 154.5-127.4 164.8-4.9 10.4-4.1 22.7 2.3 32.2 6.6 9.5 19.7 11.9 29.3 5.3 1.2-.8 119.6-76.7 260.1-54.1 131.7 20.7 236.6-55.1 256.5-70.6 16.6-12.8 19.8-36.4 7-53-12.8-16.6-36.4-19.8-53-7-1.4 1.1-136.6 105.5-312.1 79.4 64.7-56.7 161.7-150.9 270.2-267.2 91.5-97 122.6-155 127.5-165.3 4.9-10.4 4.1-22.7-2.3-32.2z"/>
</svg>
